<svg xmlns="http://www.w3.org/2000/svg" viewBox="0 0 69 69"><defs><style>.cls-1{fill:#fff;stroke:#607d8b;stroke-miterlimit:10;stroke-width:2px;}</style></defs><g id="Layer_2" data-name="Layer 2"><g id="Layer_1-2" data-name="Layer 1"><circle class="cls-1" cx="34.5" cy="34.5" r="33.5"/><path d="M16.61,58.92c-.05-.66-.09-1.31-.13-2s-.11-1.46-.17-2.19l-.12-1.65L16,51c-.06-.74-.11-1.48-.17-2.22l-.12-1.64c-.06-.72-.12-1.45-.17-2.17s-.11-1.46-.17-2.19-.1-1.48-.16-2.22-.1-1.42-.16-2.13a.68.68,0,0,1,.68-.69q18.23,0,36.46,0a.68.68,0,0,1,.68.67c-.06.71-.11,1.42-.16,2.13,0,.4,0,.79-.08,1.19-.06.7-.11,1.4-.17,2.1,0,.42,0,.83-.08,1.25-.06.67-.11,1.34-.17,2,0,.41,0,.83-.08,1.24-.05.7-.11,1.39-.16,2.09l-.09,1.31-.15,1.94-.09,1.22c0,.69-.11,1.38-.16,2.07,0,.44-.05.87-.08,1.31q0,.33-.06.69Zm15.05-4.47a.7.7,0,0,0,.57.76.69.69,0,0,0,.74-.5c.18-.65.36-1.29.53-2,.53-2,1-3.95,1.58-5.93l1.23-4.58A.67.67,0,1,0,35,41.93c-.26,1-.52,2-.79,3l-1.47,5.46-.88,3.25Zm-5.6-6.14,0,0,3.84-3a.69.69,0,0,0,.2-.87.62.62,0,0,0-.85-.28,4.21,4.21,0,0,0-.57.4l-2.79,2.15c-.47.36-.94.72-1.39,1.09a.62.62,0,0,0,0,1c1.11.87,2.24,1.73,3.36,2.59.45.34.89.69,1.35,1a.63.63,0,0,0,.87-.19.71.71,0,0,0-.1-.88l-1-.81-2.28-1.75Zm15.9,0-1,.75c-1,.75-1.93,1.51-2.9,2.25a.68.68,0,0,0-.18.93.65.65,0,0,0,1,.14l1.43-1.09c1-.81,2.08-1.63,3.14-2.43a.65.65,0,0,0,0-1.07l-1.62-1.25L40,45.07c-.37-.28-.72-.57-1.09-.84a.68.68,0,0,0-.92.09.68.68,0,0,0,.08,1l1.51,1.16Z"/><path d="M28.43,19c.43,0,.82,0,1.21-.06.68-.07,1.36-.12,2-.23s1.55-.31,2.32-.51a10.11,10.11,0,0,0,3.48-1.64l.19-.12c.3.34.61.67.91,1l.54.62c.14.15.27.29.4.45a.38.38,0,0,1,.05.19c0,1.91,0,3.82,0,5.73A4.84,4.84,0,0,1,38.71,27a5.45,5.45,0,0,1-2.56,2.16,5.56,5.56,0,0,1-5.82-.94,5.82,5.82,0,0,1-1.42-1.92,4.23,4.23,0,0,1-.43-1.54c0-.72,0-1.45,0-2.17,0-1.1,0-2.2,0-3.3Z"/><path d="M27.08,19l-.84.05a1.41,1.41,0,0,1,0-.2c0-.78,0-1.55,0-2.33a7.87,7.87,0,0,1,.67-2.9,7.78,7.78,0,0,1,1.92-2.65,7.84,7.84,0,0,1,5.39-2,8.2,8.2,0,0,1,2.85.63,7.79,7.79,0,0,1,4.59,5.83,17.13,17.13,0,0,1,.12,2.77V19l-.85,0a1.31,1.31,0,0,1,0-.28,1.33,1.33,0,0,0-.46-1.13c-.59-.64-1.17-1.3-1.76-1.95a5.76,5.76,0,0,0-.53-.57.6.6,0,0,0-.92,0,13.57,13.57,0,0,1-1.23.92A8.76,8.76,0,0,1,33.32,17c-.85.2-1.71.37-2.58.49-.61.09-1.22.1-1.84.13-.41,0-.82,0-1.23.05a.67.67,0,0,0-.59.67Z"/><path d="M32.78,36.33H21l0,0,.49-.32a12.12,12.12,0,0,1,2.72-1l2.07-.64,3.82-1.17a.21.21,0,0,1,.17.06c.8,1,1.6,2,2.39,2.95C32.69,36.18,32.72,36.24,32.78,36.33Z"/><path d="M47.06,36.33H35.2l.72-.9,1.61-2,.23-.28a.25.25,0,0,1,.17,0l1.67.51,4.76,1.47a8.49,8.49,0,0,1,2.47,1.07Z"/><path d="M36.9,30.27c0,.62,0,1.19,0,1.76,0,.11-.1.21-.18.3l-1.86,2.32c-.28.35-.56.69-.86,1l-1.73-2.17-1.08-1.33A.3.3,0,0,1,31.1,32c0-.57,0-1.15,0-1.76A6.84,6.84,0,0,0,36.9,30.27Z"/><path d="M27.07,20.3v3.19a1.66,1.66,0,0,1-1.52-.71,1.54,1.54,0,0,1,0-1.74A1.64,1.64,0,0,1,27.07,20.3Z"/><path d="M40.92,23.47V20.34a1.68,1.68,0,0,1,1.43.52,1.6,1.6,0,0,1,.12,1.88A1.57,1.57,0,0,1,40.92,23.47Z"/></g></g></svg>