<?xml version="1.0" encoding="utf-8"?>
<!-- Generator: Adobe Illustrator 26.2.0, SVG Export Plug-In . SVG Version: 6.00 Build 0)  -->
<svg version="1.1" xmlns="http://www.w3.org/2000/svg" xmlns:xlink="http://www.w3.org/1999/xlink" x="0px" y="0px"
	 viewBox="0 0 720 684.76" style="enable-background:new 0 0 720 684.76;" xml:space="preserve">
<style type="text/css">
	.st0{display:none;}
	.st1{display:inline;fill-rule:evenodd;clip-rule:evenodd;fill:#231F20;}
	.st2{fill:#A44E9E;}
	.st3{fill:#F6895A;}
	.st4{fill:#39B0E4;}
	.st5{fill:#FAA21B;}
	.st6{fill:#7FA52E;}
	.st7{fill:#0885C4;}
	.st8{fill:#F9C514;}
	.st9{fill:#822C82;}
	.st10{fill:#E96D24;}
	.st11{fill:#A9CC54;}
</style>
<g id="Layer_1">
</g>
<g id="Layer_2" class="st0">
	<polygon class="st1" points="366.59,36.67 436.4,251.52 662.3,251.52 479.54,384.3 549.35,599.15 366.59,466.37 183.83,599.15 
		253.64,384.3 70.87,251.52 296.78,251.52 	"/>
</g>
<g id="Layer_2_copy">
	<g>
		<polygon class="st2" points="360,380.17 268.44,508.26 137.51,684.76 222.49,423.21 282.29,402.49 		"/>
		<polygon class="st3" points="582.49,684.76 360,523.11 358,455.18 360,380.17 452.86,504.56 		"/>
		<polygon class="st4" points="275.02,261.56 0,261.56 206.63,331.64 360,380.17 309.26,306.56 		"/>
		<polygon class="st5" points="720,261.56 497.51,423.21 441.51,407.68 360,380.17 517.83,326.16 		"/>
		<polygon class="st6" points="360,0 358,206.63 360,380.17 412.98,310.02 444.98,261.56 		"/>
		<g>
			<polygon class="st7" points="0,261.56 222.49,423.21 360,380.17 			"/>
		</g>
		<polygon class="st8" points="444.98,261.56 720,261.56 360,380.17 		"/>
		<g>
			<polygon class="st9" points="137.51,684.76 360,523.11 360,380.17 			"/>
		</g>
		<g>
			<polygon class="st10" points="360,380.17 582.49,684.76 497.51,423.21 			"/>
		</g>
		<polygon class="st11" points="360,0 360,380.17 275.02,261.56 		"/>
	</g>
</g>
</svg>
