<svg width="669" height="545" viewBox="0 0 669 545" fill="none" xmlns="http://www.w3.org/2000/svg">
<path d="M0 360.449C0 283.109 51.5969 218.055 122.162 197.394C142.522 85.1558 240.697 0 358.677 0C423.105 0 481.397 25.4081 524.629 66.7285C542.199 54.7227 563.397 48.0232 586.268 48.0232C643.444 48.0232 690.301 91.2994 696.157 147.139C707.313 145.185 718.749 144.068 730.742 144.068C841.191 144.068 931 233.691 931 344.533C931 455.377 841.469 545 730.742 545C704.525 545 679.423 539.975 656.553 530.76H163.998C72.795 527.132 0 452.306 0 360.449Z" fill="url(#paint0_linear_10143_176147)" fill-opacity="0.5"/>
<defs>
<linearGradient id="paint0_linear_10143_176147" x1="412.5" y1="579.5" x2="465.434" y2="-61.5996" gradientUnits="userSpaceOnUse">
<stop offset="0.239583" stop-color="#F9FAFB"/>
<stop offset="1" stop-color="#E4EAF0"/>
</linearGradient>
</defs>
</svg>
